<mxfile host="app.diagrams.net" modified="2024-06-21T21:09:14.714Z" agent="Mozilla/5.0 (Macintosh; Intel Mac OS X 10_15_7) AppleWebKit/605.1.15 (KHTML, like Gecko) Version/17.5 Safari/605.1.15" etag="28G8e9NXQE0QK6v28RjT" version="24.6.1" type="github">
  <diagram id="JRBS3jds2uneV--2iSZa" name="Page-1">
    <mxGraphModel dx="-10" dy="407" grid="0" gridSize="10" guides="1" tooltips="1" connect="1" arrows="1" fold="1" page="0" pageScale="1" pageWidth="827" pageHeight="1169" math="0" shadow="0">
      <root>
        <mxCell id="0" />
        <mxCell id="1" parent="0" />
        <mxCell id="NCNwXgkXFn8wlwjdmMDK-3" value="Training Data" style="shape=datastore;whiteSpace=wrap;html=1;" vertex="1" parent="1">
          <mxGeometry x="1182" y="386" width="60" height="60" as="geometry" />
        </mxCell>
        <mxCell id="NCNwXgkXFn8wlwjdmMDK-4" value="HTTP server" style="shape=cube;whiteSpace=wrap;html=1;boundedLbl=1;backgroundOutline=1;darkOpacity=0.05;darkOpacity2=0.1;" vertex="1" parent="1">
          <mxGeometry x="1146" y="243" width="120" height="80" as="geometry" />
        </mxCell>
        <mxCell id="NCNwXgkXFn8wlwjdmMDK-5" value="UI Client" style="rounded=1;whiteSpace=wrap;html=1;rotation=0;arcSize=22;" vertex="1" parent="1">
          <mxGeometry x="946" y="338.75" width="92" height="144.5" as="geometry" />
        </mxCell>
        <mxCell id="NCNwXgkXFn8wlwjdmMDK-7" value="" style="shape=actor;whiteSpace=wrap;html=1;" vertex="1" parent="1">
          <mxGeometry x="817" y="365" width="42" height="60" as="geometry" />
        </mxCell>
        <mxCell id="NCNwXgkXFn8wlwjdmMDK-21" value="tesla" style="shape=cube;whiteSpace=wrap;html=1;boundedLbl=1;backgroundOutline=1;darkOpacity=0.05;darkOpacity2=0.1;size=6;" vertex="1" parent="1">
          <mxGeometry x="1414" y="266.5" width="34" height="28.5" as="geometry" />
        </mxCell>
        <mxCell id="NCNwXgkXFn8wlwjdmMDK-24" value="" style="endArrow=none;dashed=1;html=1;dashPattern=1 3;strokeWidth=2;rounded=0;fontSize=12;startSize=8;endSize=8;curved=1;" edge="1" parent="1">
          <mxGeometry width="50" height="50" relative="1" as="geometry">
            <mxPoint x="1272" y="280" as="sourcePoint" />
            <mxPoint x="1411" y="282" as="targetPoint" />
          </mxGeometry>
        </mxCell>
        <mxCell id="NCNwXgkXFn8wlwjdmMDK-27" value="" style="endArrow=none;dashed=1;html=1;rounded=0;fontSize=12;startSize=8;endSize=8;curved=1;entryX=1;entryY=0.75;entryDx=0;entryDy=0;exitX=0;exitY=0.5;exitDx=0;exitDy=0;" edge="1" parent="1" source="NCNwXgkXFn8wlwjdmMDK-5" target="NCNwXgkXFn8wlwjdmMDK-7">
          <mxGeometry width="50" height="50" relative="1" as="geometry">
            <mxPoint x="944" y="441" as="sourcePoint" />
            <mxPoint x="994" y="391" as="targetPoint" />
          </mxGeometry>
        </mxCell>
        <mxCell id="NCNwXgkXFn8wlwjdmMDK-28" value="" style="endArrow=none;dashed=1;html=1;rounded=0;fontSize=12;startSize=8;endSize=8;curved=1;entryX=0;entryY=0;entryDx=0;entryDy=60;entryPerimeter=0;exitX=0.978;exitY=0.369;exitDx=0;exitDy=0;exitPerimeter=0;" edge="1" parent="1" source="NCNwXgkXFn8wlwjdmMDK-5" target="NCNwXgkXFn8wlwjdmMDK-4">
          <mxGeometry width="50" height="50" relative="1" as="geometry">
            <mxPoint x="1006" y="399" as="sourcePoint" />
            <mxPoint x="1141" y="306" as="targetPoint" />
          </mxGeometry>
        </mxCell>
        <mxCell id="NCNwXgkXFn8wlwjdmMDK-29" value="" style="endArrow=none;dashed=1;html=1;dashPattern=1 3;strokeWidth=2;rounded=0;fontSize=12;startSize=8;endSize=8;curved=1;exitX=0.5;exitY=0;exitDx=0;exitDy=0;entryX=0;entryY=0;entryDx=70;entryDy=80;entryPerimeter=0;" edge="1" parent="1" source="NCNwXgkXFn8wlwjdmMDK-3" target="NCNwXgkXFn8wlwjdmMDK-4">
          <mxGeometry width="50" height="50" relative="1" as="geometry">
            <mxPoint x="1167" y="383" as="sourcePoint" />
            <mxPoint x="1217" y="333" as="targetPoint" />
          </mxGeometry>
        </mxCell>
      </root>
    </mxGraphModel>
  </diagram>
</mxfile>
